<svg width="65" height="65" viewBox="0 0 65 65" fill="none" xmlns="http://www.w3.org/2000/svg">
<path d="M6.46301 30.017L4.18756 32.3146L1.91211 30.017L4.18756 27.7195L6.46301 30.017ZM61.1768 56.0151C61.1768 56.877 60.8377 57.7035 60.2342 58.313C59.6306 58.9224 58.8119 59.2648 57.9584 59.2648C57.1048 59.2648 56.2861 58.9224 55.6826 58.313C55.079 57.7035 54.7399 56.877 54.7399 56.0151H61.1768ZM20.2799 48.5634L4.18756 32.3146L8.73846 27.7195L24.8308 43.9682L20.2799 48.5634ZM4.18756 27.7195L20.2799 11.4707L24.8308 16.0659L8.73846 32.3146L4.18756 27.7195ZM6.46301 26.7673H38.6476V33.2668H6.46301V26.7673ZM61.1768 49.5156V56.0151H54.7399V49.5156H61.1768ZM38.6476 26.7673C44.6227 26.7673 50.3531 29.164 54.5782 33.4301C58.8032 37.6962 61.1768 43.4823 61.1768 49.5156H54.7399C54.7399 45.2061 53.0445 41.0732 50.0266 38.026C47.0087 34.9787 42.9155 33.2668 38.6476 33.2668V26.7673Z" fill="#42626C"/>
</svg>
