<svg xmlns="http://www.w3.org/2000/svg" xmlns:xlink="http://www.w3.org/1999/xlink" zoomAndPan="magnify" preserveAspectRatio="xMidYMid meet" version="1.0" viewBox="0 0.23 157 21.68"><defs><g/><clipPath id="2ea817f6e5"><path d="M 0 0.226562 L 150 0.226562 L 150 16 L 0 16 Z M 0 0.226562 " clip-rule="nonzero"/></clipPath><clipPath id="70f7199ad7"><path d="M 139 0.226562 L 157 0.226562 L 157 16 L 139 16 Z M 139 0.226562 " clip-rule="nonzero"/></clipPath><clipPath id="1e9730d319"><path d="M 127 0.226562 L 150 0.226562 L 150 16 L 127 16 Z M 127 0.226562 " clip-rule="nonzero"/></clipPath><clipPath id="81c0144029"><path d="M 0 16 L 57 16 L 57 21.910156 L 0 21.910156 Z M 0 16 " clip-rule="nonzero"/></clipPath><clipPath id="fb21ce8450"><path d="M 2.539062 2.398438 L 15.996094 2.398438 L 15.996094 13.609375 L 2.539062 13.609375 Z M 2.539062 2.398438 " clip-rule="nonzero"/></clipPath><clipPath id="58f7790607"><path d="M 5 11 L 6 11 L 6 13.609375 L 5 13.609375 Z M 5 11 " clip-rule="nonzero"/></clipPath><clipPath id="1281f85568"><path d="M 7 9 L 9 9 L 9 13.609375 L 7 13.609375 Z M 7 9 " clip-rule="nonzero"/></clipPath><clipPath id="7c7f8d569b"><path d="M 10 8 L 11 8 L 11 13.609375 L 10 13.609375 Z M 10 8 " clip-rule="nonzero"/></clipPath><clipPath id="da67e498bc"><path d="M 13 6 L 14 6 L 14 13.609375 L 13 13.609375 Z M 13 6 " clip-rule="nonzero"/></clipPath><clipPath id="3cbcac9ce7"><path d="M 15 4 L 15.996094 4 L 15.996094 13.609375 L 15 13.609375 Z M 15 4 " clip-rule="nonzero"/></clipPath></defs><g clip-path="url(#2ea817f6e5)"><path fill="#126dbc" d="M 0 0.265625 L 0 15.511719 L 139.304688 15.511719 L 149.503906 0.265625 Z M 0 0.265625 " fill-opacity="1" fill-rule="nonzero"/></g><g clip-path="url(#70f7199ad7)"><path fill="#11499c" d="M 157 0.265625 L 149.503906 0.265625 L 139.304688 15.511719 L 157 15.511719 Z M 157 0.265625 " fill-opacity="1" fill-rule="nonzero"/></g><g clip-path="url(#1e9730d319)"><path fill="#1158a6" d="M 139.304688 15.511719 L 127.335938 15.511719 L 137.535156 0.265625 L 149.503906 0.265625 Z M 139.304688 15.511719 " fill-opacity="1" fill-rule="nonzero"/></g><g clip-path="url(#81c0144029)"><path fill="#01183c" d="M 0 16.324219 L 56.609375 16.324219 L 53.421875 21.871094 L 0 21.871094 Z M 0 16.324219 " fill-opacity="1" fill-rule="nonzero"/></g><g clip-path="url(#fb21ce8450)"><path fill="#ffffff" d="M 15.867188 3.640625 C 15.867188 3.640625 15.875 3.640625 15.867188 3.640625 C 15.96875 3.640625 16.039062 3.5625 16.046875 3.46875 L 16.0625 2.589844 C 16.0625 2.496094 15.988281 2.417969 15.890625 2.410156 L 15.011719 2.398438 C 14.917969 2.398438 14.839844 2.46875 14.832031 2.570312 C 14.832031 2.660156 14.902344 2.738281 15.003906 2.746094 L 15.433594 2.753906 L 12.429688 5.828125 C 12.316406 5.761719 12.1875 5.71875 12.050781 5.71875 C 11.644531 5.71875 11.308594 6.050781 11.308594 6.464844 C 11.308594 6.511719 11.316406 6.5625 11.320312 6.613281 L 9.25 7.59375 C 9.113281 7.421875 8.90625 7.3125 8.671875 7.3125 C 8.261719 7.3125 7.925781 7.644531 7.925781 8.058594 C 7.925781 8.113281 7.933594 8.171875 7.949219 8.222656 L 5.890625 9.242188 C 5.753906 9.078125 5.546875 8.980469 5.324219 8.980469 C 4.917969 8.980469 4.582031 9.308594 4.582031 9.722656 C 4.582031 9.914062 4.660156 10.09375 4.78125 10.222656 L 2.597656 13.539062 C 2.546875 13.617188 2.566406 13.726562 2.644531 13.78125 C 2.675781 13.804688 2.710938 13.808594 2.738281 13.808594 C 2.796875 13.808594 2.851562 13.78125 2.882812 13.730469 L 5.074219 10.414062 C 5.15625 10.445312 5.238281 10.457031 5.324219 10.457031 C 5.734375 10.457031 6.070312 10.128906 6.070312 9.714844 C 6.070312 9.65625 6.0625 9.601562 6.046875 9.550781 L 8.105469 8.527344 C 8.242188 8.691406 8.449219 8.792969 8.671875 8.792969 C 9.078125 8.792969 9.414062 8.464844 9.414062 8.050781 C 9.414062 8 9.40625 7.949219 9.398438 7.898438 L 11.472656 6.921875 C 11.609375 7.09375 11.816406 7.199219 12.050781 7.199219 C 12.457031 7.199219 12.792969 6.871094 12.792969 6.457031 C 12.792969 6.3125 12.75 6.175781 12.679688 6.0625 L 15.710938 2.960938 L 15.703125 3.460938 C 15.695312 3.5625 15.773438 3.640625 15.867188 3.640625 Z M 5.332031 10.109375 C 5.117188 10.109375 4.941406 9.929688 4.941406 9.714844 C 4.941406 9.5 5.117188 9.320312 5.332031 9.320312 C 5.546875 9.320312 5.726562 9.5 5.726562 9.714844 C 5.726562 9.929688 5.546875 10.109375 5.332031 10.109375 Z M 8.679688 8.449219 C 8.464844 8.449219 8.285156 8.273438 8.285156 8.058594 C 8.285156 7.84375 8.464844 7.664062 8.679688 7.664062 C 8.890625 7.664062 9.070312 7.84375 9.070312 8.058594 C 9.070312 8.273438 8.898438 8.449219 8.679688 8.449219 Z M 12.050781 6.855469 C 11.835938 6.855469 11.65625 6.679688 11.65625 6.464844 C 11.65625 6.25 11.835938 6.070312 12.050781 6.070312 C 12.265625 6.070312 12.445312 6.25 12.445312 6.464844 C 12.445312 6.679688 12.265625 6.855469 12.050781 6.855469 Z M 12.050781 6.855469 " fill-opacity="1" fill-rule="nonzero"/></g><g clip-path="url(#58f7790607)"><path fill="#ffffff" d="M 5.398438 11.203125 C 5.304688 11.203125 5.226562 11.28125 5.226562 11.375 L 5.226562 13.726562 C 5.226562 13.816406 5.304688 13.894531 5.398438 13.894531 C 5.492188 13.894531 5.570312 13.816406 5.570312 13.726562 L 5.570312 11.375 C 5.574219 11.28125 5.496094 11.203125 5.398438 11.203125 Z M 5.398438 11.203125 " fill-opacity="1" fill-rule="nonzero"/></g><g clip-path="url(#1281f85568)"><path fill="#ffffff" d="M 8.0625 9.65625 C 7.96875 9.65625 7.890625 9.738281 7.890625 9.828125 L 7.890625 13.730469 C 7.890625 13.824219 7.96875 13.902344 8.0625 13.902344 C 8.15625 13.902344 8.234375 13.824219 8.234375 13.730469 L 8.234375 9.828125 C 8.234375 9.730469 8.15625 9.65625 8.0625 9.65625 Z M 8.0625 9.65625 " fill-opacity="1" fill-rule="nonzero"/></g><g clip-path="url(#7c7f8d569b)"><path fill="#ffffff" d="M 10.722656 8.4375 C 10.628906 8.4375 10.550781 8.515625 10.550781 8.609375 L 10.550781 13.726562 C 10.550781 13.816406 10.628906 13.894531 10.722656 13.894531 C 10.816406 13.894531 10.894531 13.816406 10.894531 13.726562 L 10.894531 8.609375 C 10.894531 8.515625 10.816406 8.4375 10.722656 8.4375 Z M 10.722656 8.4375 " fill-opacity="1" fill-rule="nonzero"/></g><g clip-path="url(#da67e498bc)"><path fill="#ffffff" d="M 13.378906 6.761719 C 13.289062 6.761719 13.207031 6.84375 13.207031 6.933594 L 13.207031 13.726562 C 13.207031 13.816406 13.289062 13.894531 13.378906 13.894531 C 13.472656 13.894531 13.550781 13.816406 13.550781 13.726562 L 13.550781 6.933594 C 13.550781 6.84375 13.480469 6.761719 13.378906 6.761719 Z M 13.378906 6.761719 " fill-opacity="1" fill-rule="nonzero"/></g><g clip-path="url(#3cbcac9ce7)"><path fill="#ffffff" d="M 15.890625 4.15625 C 15.796875 4.15625 15.71875 4.234375 15.71875 4.328125 L 15.71875 13.726562 C 15.71875 13.816406 15.796875 13.894531 15.890625 13.894531 C 15.980469 13.894531 16.0625 13.816406 16.0625 13.726562 L 16.0625 4.332031 C 16.0625 4.234375 15.980469 4.15625 15.890625 4.15625 Z M 15.890625 4.15625 " fill-opacity="1" fill-rule="nonzero"/></g><g fill="#ffffff" fill-opacity="1"><g transform="translate(18.91171, 10.80396)"><g><path d="M 3.15625 -7.296875 C 3.550781 -7.296875 3.929688 -7.238281 4.296875 -7.125 C 4.671875 -7.007812 4.945312 -6.898438 5.125 -6.796875 L 5.390625 -6.625 L 4.71875 -5.3125 C 4.664062 -5.351562 4.59375 -5.398438 4.5 -5.453125 C 4.414062 -5.503906 4.242188 -5.578125 3.984375 -5.671875 C 3.734375 -5.765625 3.5 -5.8125 3.28125 -5.8125 C 3 -5.8125 2.785156 -5.753906 2.640625 -5.640625 C 2.492188 -5.523438 2.421875 -5.367188 2.421875 -5.171875 C 2.421875 -5.066406 2.453125 -4.972656 2.515625 -4.890625 C 2.585938 -4.804688 2.707031 -4.71875 2.875 -4.625 C 3.050781 -4.53125 3.203125 -4.453125 3.328125 -4.390625 C 3.453125 -4.335938 3.648438 -4.253906 3.921875 -4.140625 C 4.378906 -3.941406 4.769531 -3.671875 5.09375 -3.328125 C 5.425781 -2.992188 5.59375 -2.613281 5.59375 -2.1875 C 5.59375 -1.769531 5.519531 -1.40625 5.375 -1.09375 C 5.226562 -0.789062 5.023438 -0.550781 4.765625 -0.375 C 4.503906 -0.207031 4.21875 -0.0820312 3.90625 0 C 3.59375 0.0820312 3.253906 0.125 2.890625 0.125 C 2.578125 0.125 2.269531 0.09375 1.96875 0.03125 C 1.664062 -0.03125 1.410156 -0.109375 1.203125 -0.203125 C 1.003906 -0.296875 0.820312 -0.390625 0.65625 -0.484375 C 0.5 -0.578125 0.382812 -0.65625 0.3125 -0.71875 L 0.203125 -0.8125 L 1.015625 -2.1875 C 1.085938 -2.132812 1.179688 -2.0625 1.296875 -1.96875 C 1.421875 -1.875 1.640625 -1.75 1.953125 -1.59375 C 2.265625 -1.445312 2.535156 -1.375 2.765625 -1.375 C 3.460938 -1.375 3.8125 -1.609375 3.8125 -2.078125 C 3.8125 -2.179688 3.785156 -2.273438 3.734375 -2.359375 C 3.679688 -2.441406 3.59375 -2.523438 3.46875 -2.609375 C 3.34375 -2.691406 3.234375 -2.757812 3.140625 -2.8125 C 3.046875 -2.863281 2.890625 -2.9375 2.671875 -3.03125 C 2.453125 -3.132812 2.289062 -3.210938 2.1875 -3.265625 C 1.75 -3.484375 1.410156 -3.75 1.171875 -4.0625 C 0.941406 -4.382812 0.828125 -4.734375 0.828125 -5.109375 C 0.828125 -5.753906 1.0625 -6.28125 1.53125 -6.6875 C 2.007812 -7.09375 2.550781 -7.296875 3.15625 -7.296875 Z M 3.15625 -7.296875 "/></g></g></g><g fill="#ffffff" fill-opacity="1"><g transform="translate(24.747701, 10.80396)"><g><path d="M 0.78125 -4.453125 L 0.78125 -6.109375 L 2.3125 -6.109375 L 2.3125 -4.453125 L 3.25 -4.453125 L 3.25 -3.28125 L 2.3125 -3.28125 L 2.3125 -1.875 C 2.3125 -1.457031 2.429688 -1.25 2.671875 -1.25 C 2.722656 -1.25 2.78125 -1.257812 2.84375 -1.28125 C 2.90625 -1.3125 2.957031 -1.335938 3 -1.359375 L 3.046875 -1.390625 L 3.4375 -0.140625 C 3.101562 0.0351562 2.722656 0.125 2.296875 0.125 C 2.015625 0.125 1.769531 0.078125 1.5625 -0.015625 C 1.351562 -0.117188 1.191406 -0.253906 1.078125 -0.421875 C 0.972656 -0.597656 0.894531 -0.78125 0.84375 -0.96875 C 0.800781 -1.15625 0.78125 -1.359375 0.78125 -1.578125 L 0.78125 -3.28125 L 0.140625 -3.28125 L 0.140625 -4.453125 Z M 0.78125 -4.453125 "/></g></g></g><g fill="#ffffff" fill-opacity="1"><g transform="translate(28.178079, 10.80396)"><g><path d="M 0.828125 -0.546875 C 0.410156 -1.003906 0.203125 -1.5625 0.203125 -2.21875 C 0.203125 -2.882812 0.410156 -3.445312 0.828125 -3.90625 C 1.242188 -4.363281 1.773438 -4.59375 2.421875 -4.59375 C 3.003906 -4.59375 3.488281 -4.40625 3.875 -4.03125 L 3.875 -4.453125 L 5.40625 -4.453125 L 5.40625 0 L 3.890625 0 L 3.890625 -0.5 L 3.875 -0.5 C 3.488281 -0.0820312 3.003906 0.125 2.421875 0.125 C 1.773438 0.125 1.242188 -0.0976562 0.828125 -0.546875 Z M 2.125 -2.984375 C 1.925781 -2.785156 1.828125 -2.53125 1.828125 -2.21875 C 1.828125 -1.914062 1.921875 -1.664062 2.109375 -1.46875 C 2.304688 -1.28125 2.5625 -1.1875 2.875 -1.1875 C 3.175781 -1.1875 3.421875 -1.28125 3.609375 -1.46875 C 3.804688 -1.664062 3.90625 -1.914062 3.90625 -2.21875 C 3.90625 -2.53125 3.804688 -2.785156 3.609375 -2.984375 C 3.410156 -3.179688 3.164062 -3.28125 2.875 -3.28125 C 2.582031 -3.28125 2.332031 -3.179688 2.125 -2.984375 Z M 2.125 -2.984375 "/></g></g></g><g fill="#ffffff" fill-opacity="1"><g transform="translate(34.109597, 10.80396)"><g><path d="M 0.78125 -4.453125 L 0.78125 -6.109375 L 2.3125 -6.109375 L 2.3125 -4.453125 L 3.25 -4.453125 L 3.25 -3.28125 L 2.3125 -3.28125 L 2.3125 -1.875 C 2.3125 -1.457031 2.429688 -1.25 2.671875 -1.25 C 2.722656 -1.25 2.78125 -1.257812 2.84375 -1.28125 C 2.90625 -1.3125 2.957031 -1.335938 3 -1.359375 L 3.046875 -1.390625 L 3.4375 -0.140625 C 3.101562 0.0351562 2.722656 0.125 2.296875 0.125 C 2.015625 0.125 1.769531 0.078125 1.5625 -0.015625 C 1.351562 -0.117188 1.191406 -0.253906 1.078125 -0.421875 C 0.972656 -0.597656 0.894531 -0.78125 0.84375 -0.96875 C 0.800781 -1.15625 0.78125 -1.359375 0.78125 -1.578125 L 0.78125 -3.28125 L 0.140625 -3.28125 L 0.140625 -4.453125 Z M 0.78125 -4.453125 "/></g></g></g><g fill="#ffffff" fill-opacity="1"><g transform="translate(37.539975, 10.80396)"><g><path d="M 0.671875 -6.9375 C 0.847656 -7.113281 1.0625 -7.203125 1.3125 -7.203125 C 1.5625 -7.203125 1.773438 -7.113281 1.953125 -6.9375 C 2.128906 -6.757812 2.21875 -6.546875 2.21875 -6.296875 C 2.21875 -6.046875 2.128906 -5.832031 1.953125 -5.65625 C 1.773438 -5.476562 1.5625 -5.390625 1.3125 -5.390625 C 1.0625 -5.390625 0.847656 -5.476562 0.671875 -5.65625 C 0.492188 -5.832031 0.40625 -6.046875 0.40625 -6.296875 C 0.40625 -6.546875 0.492188 -6.757812 0.671875 -6.9375 Z M 0.515625 -4.453125 L 0.515625 0 L 2.0625 0 L 2.0625 -4.453125 Z M 0.515625 -4.453125 "/></g></g></g><g fill="#ffffff" fill-opacity="1"><g transform="translate(40.162699, 10.80396)"><g><path d="M 2.453125 -4.59375 C 2.710938 -4.59375 2.96875 -4.5625 3.21875 -4.5 C 3.46875 -4.4375 3.648438 -4.378906 3.765625 -4.328125 L 3.953125 -4.234375 L 3.453125 -3.234375 C 3.097656 -3.421875 2.765625 -3.515625 2.453125 -3.515625 C 2.285156 -3.515625 2.164062 -3.492188 2.09375 -3.453125 C 2.019531 -3.410156 1.984375 -3.335938 1.984375 -3.234375 C 1.984375 -3.210938 1.984375 -3.191406 1.984375 -3.171875 C 1.992188 -3.148438 2.003906 -3.128906 2.015625 -3.109375 C 2.035156 -3.085938 2.050781 -3.066406 2.0625 -3.046875 C 2.082031 -3.035156 2.109375 -3.019531 2.140625 -3 C 2.179688 -2.988281 2.210938 -2.976562 2.234375 -2.96875 C 2.253906 -2.957031 2.285156 -2.941406 2.328125 -2.921875 C 2.367188 -2.910156 2.398438 -2.898438 2.421875 -2.890625 C 2.453125 -2.878906 2.492188 -2.863281 2.546875 -2.84375 C 2.597656 -2.832031 2.640625 -2.820312 2.671875 -2.8125 C 2.847656 -2.757812 3.003906 -2.703125 3.140625 -2.640625 C 3.273438 -2.578125 3.414062 -2.488281 3.5625 -2.375 C 3.707031 -2.269531 3.820312 -2.132812 3.90625 -1.96875 C 3.988281 -1.800781 4.03125 -1.609375 4.03125 -1.390625 C 4.03125 -0.378906 3.328125 0.125 1.921875 0.125 C 1.597656 0.125 1.289062 0.078125 1 -0.015625 C 0.71875 -0.117188 0.515625 -0.21875 0.390625 -0.3125 L 0.203125 -0.46875 L 0.828125 -1.515625 C 0.867188 -1.472656 0.925781 -1.425781 1 -1.375 C 1.082031 -1.320312 1.222656 -1.242188 1.421875 -1.140625 C 1.617188 -1.046875 1.785156 -1 1.921875 -1 C 2.242188 -1 2.40625 -1.109375 2.40625 -1.328125 C 2.40625 -1.429688 2.363281 -1.507812 2.28125 -1.5625 C 2.195312 -1.613281 2.054688 -1.671875 1.859375 -1.734375 C 1.671875 -1.804688 1.523438 -1.875 1.421875 -1.9375 C 1.140625 -2.082031 0.914062 -2.242188 0.75 -2.421875 C 0.59375 -2.609375 0.515625 -2.851562 0.515625 -3.15625 C 0.515625 -3.601562 0.6875 -3.953125 1.03125 -4.203125 C 1.382812 -4.460938 1.859375 -4.59375 2.453125 -4.59375 Z M 2.453125 -4.59375 "/></g></g></g><g fill="#ffffff" fill-opacity="1"><g transform="translate(44.435477, 10.80396)"><g><path d="M 0.78125 -4.453125 L 0.78125 -6.109375 L 2.3125 -6.109375 L 2.3125 -4.453125 L 3.25 -4.453125 L 3.25 -3.28125 L 2.3125 -3.28125 L 2.3125 -1.875 C 2.3125 -1.457031 2.429688 -1.25 2.671875 -1.25 C 2.722656 -1.25 2.78125 -1.257812 2.84375 -1.28125 C 2.90625 -1.3125 2.957031 -1.335938 3 -1.359375 L 3.046875 -1.390625 L 3.4375 -0.140625 C 3.101562 0.0351562 2.722656 0.125 2.296875 0.125 C 2.015625 0.125 1.769531 0.078125 1.5625 -0.015625 C 1.351562 -0.117188 1.191406 -0.253906 1.078125 -0.421875 C 0.972656 -0.597656 0.894531 -0.78125 0.84375 -0.96875 C 0.800781 -1.15625 0.78125 -1.359375 0.78125 -1.578125 L 0.78125 -3.28125 L 0.140625 -3.28125 L 0.140625 -4.453125 Z M 0.78125 -4.453125 "/></g></g></g><g fill="#ffffff" fill-opacity="1"><g transform="translate(47.865855, 10.80396)"><g><path d="M 0.671875 -6.9375 C 0.847656 -7.113281 1.0625 -7.203125 1.3125 -7.203125 C 1.5625 -7.203125 1.773438 -7.113281 1.953125 -6.9375 C 2.128906 -6.757812 2.21875 -6.546875 2.21875 -6.296875 C 2.21875 -6.046875 2.128906 -5.832031 1.953125 -5.65625 C 1.773438 -5.476562 1.5625 -5.390625 1.3125 -5.390625 C 1.0625 -5.390625 0.847656 -5.476562 0.671875 -5.65625 C 0.492188 -5.832031 0.40625 -6.046875 0.40625 -6.296875 C 0.40625 -6.546875 0.492188 -6.757812 0.671875 -6.9375 Z M 0.515625 -4.453125 L 0.515625 0 L 2.0625 0 L 2.0625 -4.453125 Z M 0.515625 -4.453125 "/></g></g></g><g fill="#ffffff" fill-opacity="1"><g transform="translate(50.488578, 10.80396)"><g><path d="M 2.890625 -3.328125 C 2.597656 -3.328125 2.347656 -3.21875 2.140625 -3 C 1.929688 -2.789062 1.828125 -2.535156 1.828125 -2.234375 C 1.828125 -1.921875 1.929688 -1.65625 2.140625 -1.4375 C 2.347656 -1.226562 2.597656 -1.125 2.890625 -1.125 C 3.023438 -1.125 3.15625 -1.140625 3.28125 -1.171875 C 3.40625 -1.210938 3.5 -1.25 3.5625 -1.28125 L 3.640625 -1.34375 L 4.15625 -0.265625 C 4.113281 -0.234375 4.054688 -0.195312 3.984375 -0.15625 C 3.921875 -0.113281 3.757812 -0.0546875 3.5 0.015625 C 3.238281 0.0859375 2.960938 0.125 2.671875 0.125 C 2.015625 0.125 1.4375 -0.101562 0.9375 -0.5625 C 0.445312 -1.019531 0.203125 -1.570312 0.203125 -2.21875 C 0.203125 -2.863281 0.445312 -3.421875 0.9375 -3.890625 C 1.4375 -4.359375 2.015625 -4.59375 2.671875 -4.59375 C 2.960938 -4.59375 3.234375 -4.554688 3.484375 -4.484375 C 3.734375 -4.410156 3.910156 -4.34375 4.015625 -4.28125 L 4.15625 -4.171875 L 3.640625 -3.125 C 3.453125 -3.257812 3.203125 -3.328125 2.890625 -3.328125 Z M 2.890625 -3.328125 "/></g></g></g><g fill="#ffffff" fill-opacity="1"><g transform="translate(54.752671, 10.80396)"><g><path d="M 2.453125 -4.59375 C 2.710938 -4.59375 2.96875 -4.5625 3.21875 -4.5 C 3.46875 -4.4375 3.648438 -4.378906 3.765625 -4.328125 L 3.953125 -4.234375 L 3.453125 -3.234375 C 3.097656 -3.421875 2.765625 -3.515625 2.453125 -3.515625 C 2.285156 -3.515625 2.164062 -3.492188 2.09375 -3.453125 C 2.019531 -3.410156 1.984375 -3.335938 1.984375 -3.234375 C 1.984375 -3.210938 1.984375 -3.191406 1.984375 -3.171875 C 1.992188 -3.148438 2.003906 -3.128906 2.015625 -3.109375 C 2.035156 -3.085938 2.050781 -3.066406 2.0625 -3.046875 C 2.082031 -3.035156 2.109375 -3.019531 2.140625 -3 C 2.179688 -2.988281 2.210938 -2.976562 2.234375 -2.96875 C 2.253906 -2.957031 2.285156 -2.941406 2.328125 -2.921875 C 2.367188 -2.910156 2.398438 -2.898438 2.421875 -2.890625 C 2.453125 -2.878906 2.492188 -2.863281 2.546875 -2.84375 C 2.597656 -2.832031 2.640625 -2.820312 2.671875 -2.8125 C 2.847656 -2.757812 3.003906 -2.703125 3.140625 -2.640625 C 3.273438 -2.578125 3.414062 -2.488281 3.5625 -2.375 C 3.707031 -2.269531 3.820312 -2.132812 3.90625 -1.96875 C 3.988281 -1.800781 4.03125 -1.609375 4.03125 -1.390625 C 4.03125 -0.378906 3.328125 0.125 1.921875 0.125 C 1.597656 0.125 1.289062 0.078125 1 -0.015625 C 0.71875 -0.117188 0.515625 -0.21875 0.390625 -0.3125 L 0.203125 -0.46875 L 0.828125 -1.515625 C 0.867188 -1.472656 0.925781 -1.425781 1 -1.375 C 1.082031 -1.320312 1.222656 -1.242188 1.421875 -1.140625 C 1.617188 -1.046875 1.785156 -1 1.921875 -1 C 2.242188 -1 2.40625 -1.109375 2.40625 -1.328125 C 2.40625 -1.429688 2.363281 -1.507812 2.28125 -1.5625 C 2.195312 -1.613281 2.054688 -1.671875 1.859375 -1.734375 C 1.671875 -1.804688 1.523438 -1.875 1.421875 -1.9375 C 1.140625 -2.082031 0.914062 -2.242188 0.75 -2.421875 C 0.59375 -2.609375 0.515625 -2.851562 0.515625 -3.15625 C 0.515625 -3.601562 0.6875 -3.953125 1.03125 -4.203125 C 1.382812 -4.460938 1.859375 -4.59375 2.453125 -4.59375 Z M 2.453125 -4.59375 "/></g></g></g></svg>