<svg width="25" height="22" viewBox="0 0 25 22" fill="none" xmlns="http://www.w3.org/2000/svg">
<path d="M6.43909 3.66667H1.24465C1.01504 3.66667 0.794834 3.57009 0.632476 3.39818C0.470118 3.22627 0.378906 2.99312 0.378906 2.75V0.916667C0.378906 0.673552 0.470118 0.440394 0.632476 0.268486C0.794834 0.0965773 1.01504 0 1.24465 0H6.43909C6.6687 0 6.8889 0.0965773 7.05126 0.268486C7.21362 0.440394 7.30483 0.673552 7.30483 0.916667V2.75C7.30483 2.99312 7.21362 3.22627 7.05126 3.39818C6.8889 3.57009 6.6687 3.66667 6.43909 3.66667ZM12.4993 0C12.1568 0 11.8221 0.107523 11.5373 0.308973C11.2526 0.510422 11.0306 0.796749 10.8996 1.13175C10.7685 1.46675 10.7343 1.83537 10.8011 2.191C10.8679 2.54663 11.0328 2.8733 11.2749 3.1297C11.5171 3.38609 11.8256 3.5607 12.1615 3.63144C12.4974 3.70218 12.8455 3.66587 13.1619 3.52711C13.4783 3.38835 13.7487 3.15337 13.939 2.85188C14.1292 2.55039 14.2308 2.19593 14.2308 1.83333C14.2308 1.3471 14.0483 0.880788 13.7236 0.536971C13.3989 0.193154 12.9585 0 12.4993 0ZM23.7539 0H18.5595C18.3299 0 18.1096 0.0965773 17.9473 0.268486C17.7849 0.440394 17.6937 0.673552 17.6937 0.916667V2.75C17.6937 2.99312 17.7849 3.22627 17.9473 3.39818C18.1096 3.57009 18.3299 3.66667 18.5595 3.66667H23.7539C23.9835 3.66667 24.2037 3.57009 24.3661 3.39818C24.5284 3.22627 24.6196 2.99312 24.6196 2.75V0.916667C24.6196 0.673552 24.5284 0.440394 24.3661 0.268486C24.2037 0.0965773 23.9835 0 23.7539 0ZM6.43909 9.16667H1.24465C1.01504 9.16667 0.794834 9.26324 0.632476 9.43515C0.470118 9.60706 0.378906 9.84022 0.378906 10.0833V11.9167C0.378906 12.1598 0.470118 12.3929 0.632476 12.5648C0.794834 12.7368 1.01504 12.8333 1.24465 12.8333H6.43909C6.6687 12.8333 6.8889 12.7368 7.05126 12.5648C7.21362 12.3929 7.30483 12.1598 7.30483 11.9167V10.0833C7.30483 9.84022 7.21362 9.60706 7.05126 9.43515C6.8889 9.26324 6.6687 9.16667 6.43909 9.16667ZM6.43909 18.3333H1.24465C1.01504 18.3333 0.794834 18.4299 0.632476 18.6018C0.470118 18.7737 0.378906 19.0069 0.378906 19.25V21.0833C0.378906 21.3264 0.470118 21.5596 0.632476 21.7315C0.794834 21.9034 1.01504 22 1.24465 22H6.43909C6.6687 22 6.8889 21.9034 7.05126 21.7315C7.21362 21.5596 7.30483 21.3264 7.30483 21.0833V19.25C7.30483 19.0069 7.21362 18.7737 7.05126 18.6018C6.8889 18.4299 6.6687 18.3333 6.43909 18.3333ZM16.828 18.3333H11.6335C11.4039 18.3333 11.1837 18.4299 11.0214 18.6018C10.859 18.7737 10.7678 19.0069 10.7678 19.25V21.0833C10.7678 21.3264 10.859 21.5596 11.0214 21.7315C11.1837 21.9034 11.4039 22 11.6335 22H16.828C17.0576 22 17.2778 21.9034 17.4402 21.7315C17.6025 21.5596 17.6937 21.3264 17.6937 21.0833V19.25C17.6937 19.0069 17.6025 18.7737 17.4402 18.6018C17.2778 18.4299 17.0576 18.3333 16.828 18.3333ZM12.4993 9.16667C12.1568 9.16667 11.8221 9.27419 11.5373 9.47564C11.2526 9.67709 11.0306 9.96342 10.8996 10.2984C10.7685 10.6334 10.7343 11.002 10.8011 11.3577C10.8679 11.7133 11.0328 12.04 11.2749 12.2964C11.5171 12.5528 11.8256 12.7274 12.1615 12.7981C12.4974 12.8688 12.8455 12.8325 13.1619 12.6938C13.4783 12.555 13.7487 12.32 13.939 12.0185C14.1292 11.7171 14.2308 11.3626 14.2308 11C14.2308 10.5138 14.0483 10.0475 13.7236 9.70364C13.3989 9.35982 12.9585 9.16667 12.4993 9.16667ZM19.4252 9.16667C19.0827 9.16667 18.748 9.27419 18.4632 9.47564C18.1785 9.67709 17.9566 9.96342 17.8255 10.2984C17.6945 10.6334 17.6602 11.002 17.727 11.3577C17.7938 11.7133 17.9587 12.04 18.2009 12.2964C18.443 12.5528 18.7515 12.7274 19.0874 12.7981C19.4233 12.8688 19.7714 12.8325 20.0878 12.6938C20.4042 12.555 20.6746 12.32 20.8649 12.0185C21.0551 11.7171 21.1567 11.3626 21.1567 11C21.1567 10.5138 20.9743 10.0475 20.6495 9.70364C20.3248 9.35982 19.8844 9.16667 19.4252 9.16667ZM22.8882 18.3333C22.5457 18.3333 22.2109 18.4409 21.9262 18.6423C21.6415 18.8438 21.4195 19.1301 21.2885 19.4651C21.1574 19.8001 21.1231 20.1687 21.19 20.5243C21.2568 20.88 21.4217 21.2066 21.6638 21.463C21.906 21.7194 22.2145 21.894 22.5504 21.9648C22.8862 22.0355 23.2344 21.9992 23.5508 21.8604C23.8672 21.7217 24.1376 21.4867 24.3278 21.1852C24.5181 20.8837 24.6196 20.5293 24.6196 20.1667C24.6196 19.6804 24.4372 19.2141 24.1125 18.8703C23.7878 18.5265 23.3474 18.3333 22.8882 18.3333Z" fill="white"/>
</svg>
