<svg width="196" height="169" viewBox="0 0 196 169" fill="none" xmlns="http://www.w3.org/2000/svg">
<path fill-rule="evenodd" clip-rule="evenodd" d="M4.39001 84.5L90.6988 4.08997L133.399 43.8721L89.791 84.5L133.399 125.128L90.6988 164.91L4.39001 84.5ZM135.594 127.173L92.8938 166.955L90.6988 169L88.5038 166.955L2.195 86.545L0 84.5L2.195 82.455L88.5038 2.04498L90.6988 0L92.8938 2.04498L135.594 41.8271L133.399 43.8721L177.008 84.5L133.399 125.128L135.594 127.173ZM135.594 127.173L180.49 169L271.189 84.5L180.49 0L135.594 41.8271L179.203 82.455L181.398 84.5L179.203 86.545L135.594 127.173Z" fill="url(#paint0_linear_133_327)"/>
<defs>
<linearGradient id="paint0_linear_133_327" x1="135.139" y1="42.25" x2="219.428" y2="132.723" gradientUnits="userSpaceOnUse">
<stop stop-color="#42626C"/>
<stop offset="1" stop-color="#7DB6C7"/>
</linearGradient>
</defs>
</svg>
