<svg width="20" height="20" viewBox="0 0 20 20" fill="none" xmlns="http://www.w3.org/2000/svg">
<path d="M16.668 10C16.668 7.22656 14.9727 4.85156 12.5664 3.84766L11.9258 5.38672C13.7305 6.14063 15 7.92188 15 10C15 12.082 13.7305 13.8594 11.9219 14.6133L12.5625 16.1523C14.9727 15.1484 16.668 12.7734 16.668 10ZM13.332 10C13.332 8.61328 12.4844 7.42578 11.2813 6.92578L10.6406 8.46484C11.2422 8.71484 11.6641 9.30859 11.6641 10.0039C11.6641 10.6953 11.2422 11.2891 10.6406 11.543L11.2813 13.082C12.4844 12.5742 13.332 11.3867 13.332 10ZM13.8477 0.769531L13.2031 2.30859C16.2148 3.5625 18.332 6.53125 18.332 10C18.332 13.4648 16.2148 16.4375 13.2031 17.6914L13.8438 19.2305C17.4609 17.7227 20 14.1602 20 10C20 5.83984 17.4609 2.27734 13.8477 0.769531ZM0 5.83203V14.1641H3.33203L9.16797 20V0L3.33203 5.83203H0Z" fill="#42626C"/>
</svg>
